<?xml version="1.0" encoding="UTF-8"?>
<svg version="1.1" xmlns="http://www.w3.org/2000/svg" width="556" height="500">
<path d="M0 0 C-1.35161557 4.17373882 -2.86921972 8.24052118 -4.5 12.3125 C-16.03613827 42.20467005 -7.4327349 74.18303827 4.9140625 102.421875 C8.88505247 111.2784505 13.36272165 119.02878008 19.32910156 126.71142578 C26.82469112 136.39552694 33.39295943 146.10061515 39 157 C39.49113281 157.94101563 39.98226562 158.88203125 40.48828125 159.8515625 C52.41910016 184.30420063 54.07331308 212.38445026 45.2890625 238.07958984 C41.43542776 248.54051972 35.8592672 257.26900466 29 266 C28.43796875 266.74636719 27.8759375 267.49273437 27.296875 268.26171875 C20.61122374 276.58501691 11.03267104 283.38899389 2 289 C1.34 289 0.68 289 0 289 C0.1952124 289.6165596 0.3904248 290.2331192 0.59155273 290.86836243 C2.67190819 297.44068574 4.74872724 304.01411976 6.82373047 310.58813477 C7.59272864 313.02297642 8.36255093 315.45755798 9.13330078 317.8918457 C14.61553395 335.20925283 19.88248413 352.57136925 25 370 C12.46 370 -0.08 370 -13 370 C-14.815 364.10125 -16.63 358.2025 -18.5 352.125 C-19.07427734 350.26375488 -19.64855469 348.40250977 -20.24023438 346.48486328 C-20.69162811 345.0134144 -21.14281431 343.54190182 -21.59375 342.0703125 C-21.83125977 341.30323975 -22.06876953 340.53616699 -22.31347656 339.74584961 C-24 334.2281436 -24 334.2281436 -24 332 C-44.295 332.495 -44.295 332.495 -65 333 C-68.24962628 344.80160816 -68.24962628 344.80160816 -71.49194336 356.60522461 C-71.89931084 358.07933785 -72.30692706 359.55338239 -72.71484375 361.02734375 C-73.03104675 362.18562683 -73.03104675 362.18562683 -73.3536377 363.36730957 C-74.8859282 368.8859282 -74.8859282 368.8859282 -76 370 C-78.6662603 370.08855161 -81.30647114 370.11524673 -83.97265625 370.09765625 C-84.77029892 370.0962413 -85.56794159 370.09482635 -86.38975525 370.09336853 C-88.94737435 370.08775316 -91.50490718 370.07519812 -94.0625 370.0625 C-95.79231645 370.05748698 -97.52213426 370.05292373 -99.25195312 370.04882812 C-103.50133553 370.03777875 -107.75065312 370.02050386 -112 370 C-110.77859926 365.70609572 -109.54838419 361.4147555 -108.3125 357.125 C-108.12035919 356.45804108 -107.92821838 355.79108215 -107.73025513 355.10391235 C-103.42080954 340.18436465 -98.81445154 325.35880095 -94.16723633 310.54150391 C-93.8906015 309.65603378 -93.61396667 308.77056366 -93.32894897 307.85826111 C-92.80581011 306.18411517 -92.28030341 304.51070677 -91.75210571 302.83815002 C-90.46484864 298.99305458 -90.46484864 298.99305458 -90 295 C-91.52367188 294.29037109 -91.52367188 294.29037109 -93.078125 293.56640625 C-102.23034502 289.20852517 -110.15994131 284.48950843 -118 278 C-118.81082031 277.34128906 -119.62164062 276.68257813 -120.45703125 276.00390625 C-139.78132741 259.64244937 -150.55354736 235.87226852 -153 211 C-154.10236392 195.81187494 -151.36876791 181.17771721 -146 167 C-145.52412921 165.66688439 -145.04891442 164.3335345 -144.57421875 163 C-137.88134092 144.61313152 -128.63729199 127.70819709 -117 112 C-116.37593262 111.15066895 -116.37593262 111.15066895 -115.73925781 110.28417969 C-102.30019643 92.09188961 -86.787709 75.60573321 -70.79223633 59.66186523 C-68.80107223 57.67610324 -66.81536779 55.6849926 -64.83007812 53.69335938 C-58.72500348 47.58475862 -52.63103591 41.54359678 -46 36 C-44.91666631 35.06270117 -43.83460722 34.12392687 -42.75390625 33.18359375 C-4.2630915 0 -4.2630915 0 0 0 Z M-28.125 175.52734375 C-29.05300415 176.33715698 -29.05300415 176.33715698 -29.99975586 177.16333008 C-30.65983643 177.74880615 -31.31991699 178.33428223 -32 178.9375 C-32.6813501 179.53651123 -33.3627002 180.13552246 -34.06469727 180.75268555 C-35.43073914 181.9555456 -36.79478697 183.16067437 -38.15673828 184.36816406 C-39.64811104 185.68847341 -41.14881692 186.99823561 -42.65234375 188.3046875 C-62.41953325 205.6727822 -90.71932358 231.92479055 -93.17700195 260.02368164 C-93.68304688 274.48146934 -93.68304688 274.48146934 -89 288 C-88.34 288.66 -87.68 289.32 -87 290 C-84.83478673 283.00175254 -82.67003839 276.00336143 -80.50586224 269.00479317 C-79.50063168 265.75410301 -78.49524887 262.50346012 -77.48950195 259.25292969 C-76.32977038 255.50470275 -75.17073008 251.75626222 -74.01171875 248.0078125 C-73.65534836 246.85636749 -73.29897797 245.70492249 -72.93180847 244.51858521 C-72.26138467 242.34961081 -71.59334262 240.17989831 -70.92807007 238.00933838 C-70.32413199 236.05102285 -69.70992684 234.09583444 -69.08389282 232.14447021 C-68.67075333 230.83521576 -68.67075333 230.83521576 -68.24926758 229.49951172 C-68.00702957 228.74676971 -67.76479156 227.99402771 -67.51521301 227.21847534 C-66.94211479 224.75074988 -66.91114826 222.52490361 -67 220 C-66.34 220.33 -65.68 220.66 -65 221 C-63.58026727 221.08934406 -62.15642209 221.11758978 -60.73388672 221.11352539 C-59.85312469 221.11344986 -58.97236267 221.11337433 -58.06491089 221.11329651 C-57.11278717 221.10813522 -56.16066345 221.10297394 -55.1796875 221.09765625 C-54.20589142 221.0962413 -53.23209534 221.09482635 -52.22879028 221.09336853 C-49.11082927 221.08775973 -45.9929394 221.07520573 -42.875 221.0625 C-40.76432395 221.05748613 -38.65364678 221.05292303 -36.54296875 221.04882812 C-31.36195479 221.03778745 -26.18098248 221.02104073 -21 221 C-20.87625 221.969375 -20.7525 222.93875 -20.625 223.9375 C-20.315625 225.4534375 -20.315625 225.4534375 -20 227 C-19.34 227.33 -18.68 227.66 -18 228 C-18.33 228.99 -18.66 229.98 -19 231 C-18.50645492 233.49787735 -18.50645492 233.49787735 -17.5847168 236.26586914 C-17.0837574 237.87752708 -17.0837574 237.87752708 -16.57267761 239.52174377 C-16.01656548 241.26088295 -16.01656548 241.26088295 -15.44921875 243.03515625 C-15.07521439 244.22475449 -14.70121002 245.41435272 -14.31587219 246.63999939 C-13.52217356 249.15736788 -12.72511125 251.67335601 -11.92211914 254.18774414 C-10.89290615 257.41161445 -9.87712972 260.6395249 -8.86564922 263.86899662 C-7.89994221 266.94725617 -6.92428508 270.02235085 -5.94921875 273.09765625 C-5.58455002 274.2591066 -5.21988129 275.42055695 -4.84416199 276.61720276 C-4.50073257 277.68848923 -4.15730316 278.7597757 -3.8034668 279.86352539 C-3.50288864 280.80933975 -3.20231049 281.75515411 -2.8926239 282.72962952 C-2.11501652 285.15121225 -2.11501652 285.15121225 0 287 C5.20769673 273.86754737 4.64479035 262.22333297 0 249 C-2.93303053 242.69584071 -6.783877 237.24893562 -11 231.75 C-21.94160307 217.00539314 -27.22450982 198.11525903 -24.54296875 179.89453125 C-24.08833732 177.57558389 -23.59037283 175.2876947 -23 173 C-25.61844541 173 -26.17842331 173.8158841 -28.125 175.52734375 Z M-46 250 C-46.36967896 251.49442627 -46.36967896 251.49442627 -46.74682617 253.01904297 C-47.89056709 257.63847963 -49.03817469 262.25694979 -50.1875 266.875 C-50.39253143 267.69901306 -50.59756287 268.52302612 -50.80880737 269.37200928 C-53.29976615 279.36891508 -55.80910294 289.35287903 -58.6784668 299.24951172 C-59.6711769 302.57049754 -59.6711769 302.57049754 -60 306 C-49.77 306 -39.54 306 -29 306 C-29.99 302.49375 -30.98 298.9875 -32 295.375 C-34.12831403 287.83208737 -36.20362511 280.28035017 -38.17578125 272.6953125 C-38.44417313 271.66801529 -38.44417313 271.66801529 -38.71798706 270.6199646 C-39.59951073 267.24556703 -40.47311191 263.86947146 -41.33398438 260.48974609 C-41.65302734 259.26594238 -41.97207031 258.04213867 -42.30078125 256.78125 C-42.58091064 255.68876953 -42.86104004 254.59628906 -43.1496582 253.47070312 C-43.73176833 250.84236598 -43.73176833 250.84236598 -46 250 Z " fill="#F79332" transform="translate(172,20)"/>
<path d="M0 0 C15.18 0.33 30.36 0.66 46 1 C46.495 3.97 46.495 3.97 47 7 C47.99 7.33 48.98 7.66 50 8 C49.67 8.99 49.34 9.98 49 11 C49.33728202 12.95521483 49.33728202 12.95521483 50.06616211 15.05981445 C50.46194458 16.30787369 50.46194458 16.30787369 50.86572266 17.58114624 C51.16655762 18.49925079 51.46739258 19.41735535 51.77734375 20.36328125 C52.0911499 21.34648346 52.40495605 22.32968567 52.72827148 23.34268188 C53.42209321 25.51445356 54.11979416 27.68498863 54.82077026 29.85446167 C56.55559112 35.22646605 58.26595867 40.60621539 59.97589302 45.98618507 C60.39141047 47.29321761 60.80724198 48.60015035 61.22337151 49.90698814 C66.98320998 67.9985324 72.55216302 86.14904702 78.12666702 104.29836655 C79.20369574 107.80392516 80.2820522 111.3090748 81.36034966 114.81424332 C82.38313125 118.1395747 83.40513608 121.46514431 84.42681885 124.79081345 C84.90489814 126.34692646 85.38313528 127.90299099 85.86154175 129.45900345 C86.52160908 131.60648352 87.18074562 133.75424702 87.83959961 135.90209961 C88.21024033 137.10934189 88.58088104 138.31658417 88.9627533 139.56040955 C90.00911244 143.03021757 91.00437049 146.51529671 92 150 C79.46 150 66.92 150 54 150 C52.185 144.10125 50.37 138.2025 48.5 132.125 C47.92572266 130.26375488 47.35144531 128.40250977 46.75976562 126.48486328 C46.30837189 125.0134144 45.85718569 123.54190182 45.40625 122.0703125 C45.16874023 121.30323975 44.93123047 120.53616699 44.68652344 119.74584961 C43 114.2281436 43 114.2281436 43 112 C29.47 112.33 15.94 112.66 2 113 C-1.24962628 124.80160816 -1.24962628 124.80160816 -4.49194336 136.60522461 C-4.89931084 138.07933785 -5.30692706 139.55338239 -5.71484375 141.02734375 C-6.03104675 142.18562683 -6.03104675 142.18562683 -6.3536377 143.36730957 C-7.8859282 148.8859282 -7.8859282 148.8859282 -9 150 C-11.6662603 150.08855161 -14.30647114 150.11524673 -16.97265625 150.09765625 C-17.77029892 150.0962413 -18.56794159 150.09482635 -19.38975525 150.09336853 C-21.94737435 150.08775316 -24.50490718 150.07519812 -27.0625 150.0625 C-28.79231645 150.05748698 -30.52213426 150.05292373 -32.25195312 150.04882812 C-36.50133553 150.03777875 -40.75065312 150.02050386 -45 150 C-39.89152426 132.04086079 -34.5669369 114.15428223 -29.0625 96.3125 C-28.63283432 94.91369598 -28.63283432 94.91369598 -28.19448853 93.4866333 C-27.37438651 90.81931037 -26.54936053 88.15356428 -25.72265625 85.48828125 C-25.47715027 84.68851364 -25.23164429 83.88874603 -24.97869873 83.06474304 C-23.22654616 77.4489545 -23.22654616 77.4489545 -21.93066406 74.88085938 C-20.58484185 72.16097105 -20.06340084 69.37425221 -19.38671875 66.41796875 C-16.4665107 54.21226753 -12.55087906 42.28605308 -8.8125 30.3125 C-7.7065391 26.76287379 -6.60188294 23.2128574 -5.50016785 19.66191101 C-4.8194545 17.46855887 -4.13623003 15.27598404 -3.45014954 13.08430481 C-3.1428038 12.09524643 -2.83545807 11.10618805 -2.51879883 10.0871582 C-2.24884598 9.22274612 -1.97889313 8.35833405 -1.70075989 7.46772766 C-1.00336332 5.01184396 -0.50068133 2.50340667 0 0 Z M21 30 C20.63032104 31.49442627 20.63032104 31.49442627 20.25317383 33.01904297 C19.10943291 37.63847963 17.96182531 42.25694979 16.8125 46.875 C16.60746857 47.69901306 16.40243713 48.52302612 16.19119263 49.37200928 C13.70023385 59.36891508 11.19089706 69.35287903 8.3215332 79.24951172 C7.3288231 82.57049754 7.3288231 82.57049754 7 86 C17.23 86 27.46 86 38 86 C37.01 82.49375 36.02 78.9875 35 75.375 C32.87168597 67.83208737 30.79637489 60.28035017 28.82421875 52.6953125 C28.55582687 51.66801529 28.55582687 51.66801529 28.28201294 50.6199646 C27.40048927 47.24556703 26.52688809 43.86947146 25.66601562 40.48974609 C25.34697266 39.26594238 25.02792969 38.04213867 24.69921875 36.78125 C24.41908936 35.68876953 24.13895996 34.59628906 23.8503418 33.47070312 C23.26823167 30.84236598 23.26823167 30.84236598 21 30 Z " fill="#ffffff" transform="translate(105,240)"/>
<path d="M0 0 C10.89 0 21.78 0 33 0 C38.32945143 8.66035857 43.48488324 17.28932404 48.375 26.1875 C49.35982089 27.97371589 50.34538394 29.75952103 51.33096313 31.5453186 C52.29548325 33.29337824 53.25907811 35.04194829 54.22265625 36.79052734 C55.75822723 39.56341417 57.30942701 42.32601719 58.875 45.08203125 C72.18795606 68.56386818 72.18795606 68.56386818 76 80 C76 53.6 76 27.2 76 0 C84.58 0 93.16 0 102 0 C102 40.92 102 81.84 102 124 C92.1 124 82.2 124 72 124 C59.85089714 102.601012 47.72822624 81.17703247 36.3125 59.375 C35.84384521 58.48232422 35.37519043 57.58964844 34.89233398 56.66992188 C31.69946492 50.52009 28.87652721 44.32835985 26 38 C26 66.38 26 94.76 26 124 C17.42 124 8.84 124 0 124 C0 83.08 0 42.16 0 0 Z M77 82 C78 84 78 84 78 84 Z " fill="#ffffff" transform="translate(220,257)"/>
<path d="M0 0 C0.58136719 0.36867188 1.16273438 0.73734375 1.76171875 1.1171875 C7.01980729 4.9581086 9.98245535 10.94736606 12 17 C12.8554678 25.71355058 12.3097679 32.83486493 7 40 C3.32390383 43.83060809 -0.58693123 47.05795415 -5 50 C-3.91332031 50.52787109 -3.91332031 50.52787109 -2.8046875 51.06640625 C6.2157752 55.67285587 11.79612769 60.39184776 15.3046875 70.0625 C17.53689296 79.49294103 17.15003548 89.6399153 12 98 C4.22076282 109.03566205 -5.75387485 113.68662691 -18.69921875 116.45703125 C-27.27386956 117.86753594 -35.64540584 118.15728305 -44.31933594 118.13037109 C-46.36400835 118.12502872 -48.40845939 118.13033531 -50.453125 118.13671875 C-69.55687932 118.14770689 -69.55687932 118.14770689 -76 116 C-76.02332931 100.24083256 -76.04097933 84.48166976 -76.05181217 68.72248936 C-76.05697506 61.40572598 -76.06401762 54.0889733 -76.07543945 46.7722168 C-76.08538651 40.39716982 -76.09185348 34.02213059 -76.09408849 27.64707607 C-76.09539557 24.26951986 -76.09848119 20.89198584 -76.10573006 17.51443672 C-76.11293613 13.74992657 -76.11399113 9.98546315 -76.11352539 6.22094727 C-76.1189183 4.52918114 -76.1189183 4.52918114 -76.12442017 2.80323792 C-76.1230455 1.78375061 -76.12167084 0.76426331 -76.12025452 -0.28611755 C-76.12117631 -1.17749137 -76.1220981 -2.06886518 -76.12304783 -2.98725033 C-76 -5 -76 -5 -75 -6 C-51.93382333 -9.57473552 -20.63572035 -13.17845239 0 0 Z M-47 14 C-47 23.24 -47 32.48 -47 42 C-31.59218759 42.23416153 -31.59218759 42.23416153 -19 35 C-16.63189678 32.01413072 -16.57519372 28.79662321 -16.6875 25.02734375 C-17.21989473 21.57343294 -18.71862577 19.58155505 -21 17 C-29.08064457 12.01407037 -37.92657171 12.18531434 -47 14 Z M-47 62 C-47 73.22 -47 84.44 -47 96 C-42.7925 96.0928125 -42.7925 96.0928125 -38.5 96.1875 C-37.63310547 96.21481201 -36.76621094 96.24212402 -35.87304688 96.27026367 C-29.54270475 96.33698192 -23.87989395 95.45364778 -18.94140625 91.24609375 C-18.48636719 90.64925781 -18.03132813 90.05242187 -17.5625 89.4375 C-17.08941406 88.83808594 -16.61632812 88.23867188 -16.12890625 87.62109375 C-13.33187796 83.60459984 -13.45385775 79.75923962 -14 75 C-15.38034027 70.72593434 -17.45571133 68.41955585 -21 65.6875 C-29.04663827 61.67279611 -38.25753616 62 -47 62 Z " fill="#ffffff" transform="translate(421,264)"/>
<path d="M0 0 C25.41 0 50.82 0 77 0 C77 7.92 77 15.84 77 24 C61.16 24 45.32 24 29 24 C29 31.92 29 39.84 29 48 C43.85 48 58.7 48 74 48 C74 55.92 74 63.84 74 72 C59.15 72 44.3 72 29 72 C29 81.24 29 90.48 29 100 C45.5 100 62 100 79 100 C79 107.92 79 115.84 79 124 C52.93 124 26.86 124 0 124 C0 83.08 0 42.16 0 0 Z " fill="#ffffff" transform="translate(455,257)"/>
<path d="M0 0 C1.65 0 3.3 0 5 0 C6.57739258 1.65234375 6.57739258 1.65234375 7.89453125 3.9375 C8.37470703 4.74960937 8.85488281 5.56171875 9.34960938 6.3984375 C9.83236328 7.25695312 10.31511719 8.11546875 10.8125 9 C11.31458984 9.85851562 11.81667969 10.71703125 12.33398438 11.6015625 C13.5725426 13.72480517 14.78845402 15.86122881 16 18 C16.33 12.06 16.66 6.12 17 0 C18.32 0 19.64 0 21 0 C21 9.24 21 18.48 21 28 C19.35 28 17.7 28 16 28 C14.42260742 26.34765625 14.42260742 26.34765625 13.10546875 24.0625 C12.62529297 23.25039063 12.14511719 22.43828125 11.65039062 21.6015625 C11.16763672 20.74304688 10.68488281 19.88453125 10.1875 19 C9.68541016 18.14148438 9.18332031 17.28296875 8.66601562 16.3984375 C7.4274574 14.27519483 6.21154598 12.13877119 5 10 C4.67 15.94 4.34 21.88 4 28 C2.68 28 1.36 28 0 28 C0 18.76 0 9.52 0 0 Z " fill="#ffffff" transform="translate(165,407)"/>
<path d="M0 0 C2.475 0.495 2.475 0.495 5 1 C5.66 0.67 6.32 0.34 7 0 C13.47058824 -0.35294118 13.47058824 -0.35294118 17 2 C17.66 1.34 18.32 0.68 19 0 C24.74553571 -0.63839286 24.74553571 -0.63839286 27 0 C30.38078392 3.95688163 30.37307683 7.83999256 30.1875 12.8125 C30.16719727 13.85180664 30.16719727 13.85180664 30.14648438 14.91210938 C30.11138845 16.60841265 30.05758943 18.30431136 30 20 C28.68 20 27.36 20 26 20 C25.93941406 19.16855469 25.87882812 18.33710938 25.81640625 17.48046875 C25.73261719 16.39378906 25.64882813 15.30710937 25.5625 14.1875 C25.48128906 13.10855469 25.40007812 12.02960938 25.31640625 10.91796875 C25.09787539 7.94010095 25.09787539 7.94010095 24 5 C23.01 4.67 22.02 4.34 21 4 C18.42380724 5.91315119 18.01604768 6.9016314 17.48828125 10.13671875 C17.43027344 11.30847656 17.37226563 12.48023438 17.3125 13.6875 C17.24675781 14.86699219 17.18101562 16.04648437 17.11328125 17.26171875 C17.07589844 18.16535156 17.03851563 19.06898438 17 20 C15.68 20 14.36 20 13 20 C12.67 14.72 12.34 9.44 12 4 C7.36980013 4.4452998 7.36980013 4.4452998 6 6 C5.76472227 8.34987262 5.58613583 10.70556039 5.4375 13.0625 C5.35371094 14.35285156 5.26992188 15.64320313 5.18359375 16.97265625 C5.12300781 17.97167969 5.06242187 18.97070312 5 20 C3.68 20 2.36 20 1 20 C0.67 13.4 0.34 6.8 0 0 Z " fill="#ffffff" transform="translate(325,415)"/>
<path d="M0 0 C1.19109375 0.03480469 1.19109375 0.03480469 2.40625 0.0703125 C3.2003125 0.08835937 3.994375 0.10640625 4.8125 0.125 C5.5034375 0.14820313 6.194375 0.17140625 6.90625 0.1953125 C7.56625 0.1953125 8.22625 0.1953125 8.90625 0.1953125 C10.24408393 0.51009696 11.57828709 0.84118906 12.90625 1.1953125 C12.88337857 4.75921922 12.8059765 8.31994566 12.71875 11.8828125 C12.71294922 12.89021484 12.70714844 13.89761719 12.70117188 14.93554688 C12.56058191 19.66874239 12.44581389 22.40909083 9.71875 26.3828125 C6.49245718 28.46197898 4.88680635 28.73630987 1.09375 28.5078125 C-0.36998047 28.44013672 -0.36998047 28.44013672 -1.86328125 28.37109375 C-2.59933594 28.31308594 -3.33539063 28.25507813 -4.09375 28.1953125 C-4.42375 26.8753125 -4.75375 25.5553125 -5.09375 24.1953125 C-3.09375 23.1953125 -3.09375 23.1953125 0.34375 23.7578125 C4.00495309 24.60038758 4.00495309 24.60038758 6.90625 22.1953125 C7.23625 21.2053125 7.56625 20.2153125 7.90625 19.1953125 C7.24625 19.5253125 6.58625 19.8553125 5.90625 20.1953125 C-1.33462591 20.77925411 -1.33462591 20.77925411 -4.53125 18.3203125 C-7.34745672 14.49027137 -7.41648441 11.95564504 -7.09375 7.1953125 C-3.74692116 0.34952623 -3.74692116 0.34952623 0 0 Z M-0.78125 4.3828125 C-2.49137913 6.7444194 -2.95472959 8.27588383 -3.09375 11.1953125 C-2.10094496 14.01668431 -2.10094496 14.01668431 -0.09375 16.1953125 C2.34435155 17.35005862 2.34435155 17.35005862 4.90625 17.1953125 C6.90136774 16.37031897 6.90136774 16.37031897 7.90625 14.1953125 C8.45884954 10.55421144 8.64270613 7.37364231 6.65625 4.1953125 C3.97246165 2.66171916 1.76677514 2.58975777 -0.78125 4.3828125 Z " fill="#ffffff" transform="translate(207.09375,414.8046875)"/>
<path d="M0 0 C1.2065625 0.0309375 1.2065625 0.0309375 2.4375 0.0625 C6.33966223 9.19815041 9.35447676 18.62844888 12.4375 28.0625 C10.7875 28.0625 9.1375 28.0625 7.4375 28.0625 C6.4475 25.0925 5.4575 22.1225 4.4375 19.0625 C1.4675 19.0625 -1.5025 19.0625 -4.5625 19.0625 C-5.5525 22.0325 -6.5425 25.0025 -7.5625 28.0625 C-8.8825 28.0625 -10.2025 28.0625 -11.5625 28.0625 C-10.2518114 21.730671 -8.58173958 15.68109223 -6.5 9.5625 C-6.0968457 8.34820312 -6.0968457 8.34820312 -5.68554688 7.109375 C-3.32113661 0.08100333 -3.32113661 0.08100333 0 0 Z M-0.5625 5.0625 C-2.0475 10.5075 -2.0475 10.5075 -3.5625 16.0625 C-1.2525 16.0625 1.0575 16.0625 3.4375 16.0625 C2.4475 12.4325 1.4575 8.8025 0.4375 5.0625 C0.1075 5.0625 -0.2225 5.0625 -0.5625 5.0625 Z " fill="#ffffff" transform="translate(73.5625,406.9375)"/>
<path d="M0 0 C1.32 0 2.64 0 4 0 C4.33 9.9 4.66 19.8 5 30 C3.35 29.67 1.7 29.34 0 29 C-0.66 29.33 -1.32 29.66 -2 30 C-9.24087591 30.58394161 -9.24087591 30.58394161 -12.4375 28.125 C-15.25370672 24.29495887 -15.32273441 21.76033254 -15 17 C-13.59539303 14.12694028 -12.25489001 12.25489001 -10 10 C-6.98173347 9.72759327 -4.03629378 9.91324875 -1 10 C-0.67 6.7 -0.34 3.4 0 0 Z M-8.6875 14.1875 C-10.39762913 16.5491069 -10.86097959 18.08057133 -11 21 C-10.00719496 23.82137181 -10.00719496 23.82137181 -8 26 C-5.56189845 27.15474612 -5.56189845 27.15474612 -3 27 C-1.00488226 26.17500647 -1.00488226 26.17500647 0 24 C0.55259954 20.35889894 0.73645613 17.17832981 -1.25 14 C-3.93378835 12.46640666 -6.13947486 12.39444527 -8.6875 14.1875 Z " fill="#ffffff" transform="translate(417,405)"/>
<path d="M0 0 C1.32 0 2.64 0 4 0 C4.33 3.63 4.66 7.26 5 11 C5.33 10.67 5.66 10.34 6 10 C10.44100541 9.36943128 13.87307209 9.17541861 17.5625 11.875 C19.60916726 16.32427665 19.89129059 20.18860833 19 25 C17 28.125 17 28.125 14 30 C11.19288113 30.40959906 8.87147275 30.23157038 6 30 C5.01 30 4.02 30 3 30 C1.68 29.67 0.36 29.34 -1 29 C-0.67 19.43 -0.34 9.86 0 0 Z M5.8125 14 C3.74683578 16.27935363 3.64800715 17.01792998 3.5 20 C3.65518518 22.90570867 3.79598772 23.75065166 5.6875 26.0625 C8.62168913 27.25203613 10.04588797 27.08835706 13 26 C15.32749345 22.50875983 15.50299316 21.10777749 15 17 C13.31167984 14.5608859 13.31167984 14.5608859 11 13 C8.05386471 12.79212012 8.05386471 12.79212012 5.8125 14 Z " fill="#ffffff" transform="translate(112,405)"/>
<path d="M0 0 C2.5 1.5625 2.5 1.5625 4 4 C4.25 7.75 4.25 7.75 4 11 C-2.435 11.495 -2.435 11.495 -9 12 C-5.67105193 16.08719047 -5.67105193 16.08719047 -2.859375 16.390625 C-0.90625 16.26041667 1.046875 16.13020833 3 16 C2.67 17.32 2.34 18.64 2 20 C-7.48283251 20.89680027 -7.48283251 20.89680027 -10.84375 18.91015625 C-13.28052757 16.23961804 -14.00374534 13.97331445 -14.5 10.4375 C-13.97300076 6.81438025 -13.22264703 4.88120911 -11 2 C-7.31082001 -0.45945333 -4.28300443 -0.6807995 0 0 Z M-9 5 C-9 5.99 -9 6.98 -9 8 C-6.03 8 -3.06 8 0 8 C-0.57125354 4.25724788 -0.57125354 4.25724788 -2 3 C-5.961168 2.60909667 -5.961168 2.60909667 -9 5 Z " fill="#ffffff" transform="translate(396,415)"/>
<path d="M0 0 C1.60332791 -0.08121924 3.20784026 -0.13929134 4.8125 -0.1875 C6.15248047 -0.23970703 6.15248047 -0.23970703 7.51953125 -0.29296875 C10.52128007 0.06156851 11.1511702 0.67388364 13 3 C13.43237305 4.90112305 13.43237305 4.90112305 13.51171875 7.01171875 C13.56489258 8.14770508 13.56489258 8.14770508 13.61914062 9.30664062 C13.64169922 10.09232422 13.66425781 10.87800781 13.6875 11.6875 C13.73874023 12.88342773 13.73874023 12.88342773 13.79101562 14.10351562 C13.87338104 16.06851904 13.93837067 18.03423696 14 20 C11.72975032 20.08097324 9.45867925 20.13917704 7.1875 20.1875 C5.29064453 20.23970703 5.29064453 20.23970703 3.35546875 20.29296875 C0 20 0 20 -1.9453125 18.70703125 C-3 17 -3 17 -3.0625 13.5 C-2 10 -2 10 0.75 8.0625 C3.76668322 7.07627664 5.86555583 6.7234314 9 7 C8.34 6.01 7.68 5.02 7 4 C4.36 4.33 1.72 4.66 -1 5 C-0.67 3.35 -0.34 1.7 0 0 Z M2 12 C1.67 12.99 1.34 13.98 1 15 C1.66 15.66 2.32 16.32 3 17 C6.30683466 16.71016731 6.30683466 16.71016731 9 15 C9.04063832 13.33382885 9.042721 11.66611905 9 10 C6.28017286 10 4.43276386 10.81480735 2 12 Z " fill="#ffffff" transform="translate(270,415)"/>
<path d="M0 0 C2.5 1.5625 2.5 1.5625 4 4 C4.25 7.75 4.25 7.75 4 11 C-2.435 11.495 -2.435 11.495 -9 12 C-5.67105193 16.08719047 -5.67105193 16.08719047 -2.859375 16.390625 C-0.90625 16.26041667 1.046875 16.13020833 3 16 C2.67 17.32 2.34 18.64 2 20 C-7.48283251 20.89680027 -7.48283251 20.89680027 -10.84375 18.91015625 C-13.28052757 16.23961804 -14.00374534 13.97331445 -14.5 10.4375 C-13.97300076 6.81438025 -13.22264703 4.88120911 -11 2 C-7.31082001 -0.45945333 -4.28300443 -0.6807995 0 0 Z M-9 5 C-9 5.99 -9 6.98 -9 8 C-6.03 8 -3.06 8 0 8 C-0.57125354 4.25724788 -0.57125354 4.25724788 -2 3 C-5.961168 2.60909667 -5.961168 2.60909667 -9 5 Z " fill="#ffffff" transform="translate(237,415)"/>
<path d="M0 0 C2.5 1.5625 2.5 1.5625 4 4 C4.25 7.75 4.25 7.75 4 11 C-2.435 11.495 -2.435 11.495 -9 12 C-5.67105193 16.08719047 -5.67105193 16.08719047 -2.859375 16.390625 C-0.90625 16.26041667 1.046875 16.13020833 3 16 C2.67 17.32 2.34 18.64 2 20 C-7.48283251 20.89680027 -7.48283251 20.89680027 -10.84375 18.91015625 C-13.28052757 16.23961804 -14.00374534 13.97331445 -14.5 10.4375 C-13.97300076 6.81438025 -13.22264703 4.88120911 -11 2 C-7.31082001 -0.45945333 -4.28300443 -0.6807995 0 0 Z M-9 5 C-9 5.99 -9 6.98 -9 8 C-6.03 8 -3.06 8 0 8 C-0.57125354 4.25724788 -0.57125354 4.25724788 -2 3 C-5.961168 2.60909667 -5.961168 2.60909667 -9 5 Z " fill="#ffffff" transform="translate(147,415)"/>
<path d="M0 0 C2.475 0.495 2.475 0.495 5 1 C5.66 0.67 6.32 0.34 7 0 C14.40567128 -0.47020135 14.40567128 -0.47020135 16.60498047 1.26977539 C18.30379866 3.37679753 18.35323565 4.33988599 18.29296875 7.01171875 C18.28330078 7.76904297 18.27363281 8.52636719 18.26367188 9.30664062 C18.23853516 10.09232422 18.21339844 10.87800781 18.1875 11.6875 C18.16719727 12.88342773 18.16719727 12.88342773 18.14648438 14.10351562 C18.11117089 16.06929967 18.05736447 18.03473582 18 20 C16.68 20 15.36 20 14 20 C13.67 14.72 13.34 9.44 13 4 C7.48436516 4.32188877 7.48436516 4.32188877 6 6 C5.76472227 8.34987262 5.58613583 10.70556039 5.4375 13.0625 C5.35371094 14.35285156 5.26992187 15.64320313 5.18359375 16.97265625 C5.12300781 17.97167969 5.06242187 18.97070312 5 20 C3.68 20 2.36 20 1 20 C0.67 13.4 0.34 6.8 0 0 Z " fill="#ffffff" transform="translate(88,415)"/>
<path d="M0 0 C1.32 0 2.64 0 4 0 C4 8.25 4 16.5 4 25 C7.96 25 11.92 25 16 25 C16 25.99 16 26.98 16 28 C10.72 28 5.44 28 0 28 C0 18.76 0 9.52 0 0 Z " fill="#ffffff" transform="translate(297,407)"/>
<path d="M0 0 C0.99 0 1.98 0 3 0 C3 1.98 3 3.96 3 6 C4.65 6 6.3 6 8 6 C8 6.99 8 7.98 8 9 C6.35 9 4.7 9 3 9 C3 13.29 3 17.58 3 22 C4.65 22 6.3 22 8 22 C8 23.32 8 24.64 8 26 C4.625 26.125 4.625 26.125 1 26 C-1 24 -1 24 -1.1953125 20.5234375 C-1.18201493 19.14049032 -1.15816232 17.75761346 -1.125 16.375 C-1.11597656 15.66859375 -1.10695313 14.9621875 -1.09765625 14.234375 C-1.07407603 12.48943902 -1.03820461 10.74467705 -1 9 C-1.99 9 -2.98 9 -4 9 C-4 8.01 -4 7.02 -4 6 C-3.01 6 -2.02 6 -1 6 C-1.020625 5.195625 -1.04125 4.39125 -1.0625 3.5625 C-1 1 -1 1 0 0 Z " fill="#ffffff" transform="translate(372,409)"/>
<path d="M0 0 C2.475 0.495 2.475 0.495 5 1 C5.33 0.67 5.66 0.34 6 0 C7.66617115 -0.04063832 9.33388095 -0.042721 11 0 C11 1.32 11 2.64 11 4 C10.360625 4.12375 9.72125 4.2475 9.0625 4.375 C8.381875 4.58125 7.70125 4.7875 7 5 C5.58365167 7.83269666 5.6536995 10.47466438 5.4375 13.625 C5.35371094 14.81351562 5.26992187 16.00203125 5.18359375 17.2265625 C5.12300781 18.14179688 5.06242188 19.05703125 5 20 C3.68 20 2.36 20 1 20 C0.67 13.4 0.34 6.8 0 0 Z " fill="#ffffff" transform="translate(244,415)"/>
<path d="M0 0 C1.32 0 2.64 0 4 0 C4 6.6 4 13.2 4 20 C2.68 20 1.36 20 0 20 C0 13.4 0 6.8 0 0 Z " fill="#ffffff" transform="translate(361,415)"/>
<path d="M0 0 C1.32 0 2.64 0 4 0 C4 6.6 4 13.2 4 20 C2.68 20 1.36 20 0 20 C0 13.4 0 6.8 0 0 Z " fill="#ffffff" transform="translate(317,415)"/>
<path d="M0 0 C1.32 0 2.64 0 4 0 C4 6.6 4 13.2 4 20 C2.68 20 1.36 20 0 20 C0 13.4 0 6.8 0 0 Z " fill="#ffffff" transform="translate(259,415)"/>
<path d="M0 0 C1.32 0 2.64 0 4 0 C4 6.6 4 13.2 4 20 C2.68 20 1.36 20 0 20 C0 13.4 0 6.8 0 0 Z " fill="#ffffff" transform="translate(192,415)"/>
<path d="M0 0 C1.32 0 2.64 0 4 0 C3.67 1.65 3.34 3.3 3 5 C1.68 4.67 0.36 4.34 -1 4 C-0.67 2.68 -0.34 1.36 0 0 Z " fill="#ffffff" transform="translate(361,407)"/>
<path d="M0 0 C1.32 0 2.64 0 4 0 C3.67 1.65 3.34 3.3 3 5 C1.68 4.67 0.36 4.34 -1 4 C-0.67 2.68 -0.34 1.36 0 0 Z " fill="#ffffff" transform="translate(317,407)"/>
<path d="M0 0 C1.32 0 2.64 0 4 0 C3.67 1.65 3.34 3.3 3 5 C1.68 4.67 0.36 4.34 -1 4 C-0.67 2.68 -0.34 1.36 0 0 Z " fill="#ffffff" transform="translate(259,407)"/>
<path d="M0 0 C1.32 0 2.64 0 4 0 C3.67 1.65 3.34 3.3 3 5 C1.68 4.67 0.36 4.34 -1 4 C-0.67 2.68 -0.34 1.36 0 0 Z " fill="#ffffff" transform="translate(192,407)"/>
</svg>
